<?xml version="1.0" encoding="UTF-8" standalone="no"?><!DOCTYPE svg PUBLIC "-//W3C//DTD SVG 1.1//EN" "http://www.w3.org/Graphics/SVG/1.1/DTD/svg11.dtd"><svg width="100%" height="100%" viewBox="0 0 134 134" version="1.1" xmlns="http://www.w3.org/2000/svg" xmlns:xlink="http://www.w3.org/1999/xlink" xml:space="preserve" xmlns:serif="http://www.serif.com/" style="fill-rule:evenodd;clip-rule:evenodd;stroke-linejoin:round;stroke-miterlimit:2;"><path d="M92.449,9.099c-0.859,-0.469 -1.924,-0.316 -2.616,0.376c-0.692,0.693 -0.846,1.758 -0.376,2.617c4.426,8.104 6.941,17.398 6.941,27.274c0,31.477 -25.555,57.032 -57.032,57.032c-9.876,0 -19.17,-2.515 -27.274,-6.941c-0.859,-0.47 -1.924,-0.316 -2.617,0.376c-0.692,0.692 -0.845,1.757 -0.376,2.616c10.427,19.093 30.693,32.055 53.962,32.055c33.911,-0 61.443,-27.532 61.443,-61.443c-0,-23.269 -12.962,-43.535 -32.055,-53.962Z" style="fill:#808080;"/></svg>