<?xml version="1.0" encoding="UTF-8" standalone="no"?><!DOCTYPE svg PUBLIC "-//W3C//DTD SVG 1.1//EN" "http://www.w3.org/Graphics/SVG/1.1/DTD/svg11.dtd"><svg width="100%" height="100%" viewBox="0 0 134 134" version="1.1" xmlns="http://www.w3.org/2000/svg" xmlns:xlink="http://www.w3.org/1999/xlink" xml:space="preserve" xmlns:serif="http://www.serif.com/" style="fill-rule:evenodd;clip-rule:evenodd;stroke-linejoin:round;stroke-miterlimit:2;"><circle cx="66.667" cy="66.667" r="33.333" style="fill:#808080;"/><path d="M65.293,124.535c0.143,0.285 0.434,0.465 0.753,0.465c0.319,-0 0.61,-0.18 0.753,-0.465l10.416,-20.834c0.131,-0.26 0.117,-0.57 -0.037,-0.818c-0.153,-0.249 -0.424,-0.4 -0.716,-0.4l-20.833,0c-0.292,0 -0.562,0.151 -0.716,0.4c-0.153,0.248 -0.167,0.558 -0.037,0.818l10.417,20.834Z" style="fill:#808080;"/><path d="M124.535,67.419c0.285,-0.142 0.465,-0.434 0.465,-0.752c-0,-0.319 -0.18,-0.611 -0.465,-0.753l-20.834,-10.417c-0.26,-0.13 -0.57,-0.116 -0.818,0.037c-0.249,0.153 -0.4,0.424 -0.4,0.716l0,20.833c0,0.292 0.151,0.563 0.4,0.716c0.248,0.154 0.558,0.168 0.818,0.037l20.834,-10.417Z" style="fill:#808080;"/><path d="M103.282,31.568c0.101,-0.302 0.022,-0.636 -0.203,-0.861c-0.226,-0.225 -0.559,-0.304 -0.862,-0.203l-15.468,5.156c-0.276,0.092 -0.486,0.321 -0.553,0.605c-0.067,0.284 0.018,0.582 0.224,0.788l10.312,10.312c0.207,0.207 0.505,0.291 0.789,0.224c0.284,-0.067 0.513,-0.276 0.605,-0.553l5.156,-15.468Z" style="fill:#808080;"/><path d="M31.732,31.549c-0.294,-0.083 -0.61,-0.001 -0.826,0.215c-0.215,0.216 -0.297,0.532 -0.214,0.825l4.099,14.411c0.082,0.287 0.309,0.51 0.598,0.585c0.289,0.075 0.596,-0.009 0.807,-0.22l10.312,-10.312c0.211,-0.211 0.294,-0.518 0.219,-0.806c-0.075,-0.289 -0.297,-0.517 -0.584,-0.598l-14.411,-4.1Z" style="fill:#808080;"/><path d="M29.646,101.607c-0.1,0.303 -0.022,0.636 0.204,0.862c0.225,0.225 0.559,0.304 0.861,0.203l15.468,-5.156c0.277,-0.092 0.486,-0.321 0.553,-0.605c0.067,-0.284 -0.018,-0.582 -0.224,-0.788l-10.312,-10.312c-0.206,-0.207 -0.505,-0.291 -0.789,-0.224c-0.283,0.067 -0.512,0.276 -0.605,0.553l-5.156,15.467Z" style="fill:#808080;"/><path d="M102.217,102.672c0.303,0.101 0.636,0.022 0.862,-0.203c0.225,-0.226 0.304,-0.559 0.203,-0.862l-5.167,-15.499c-0.092,-0.277 -0.321,-0.486 -0.605,-0.553c-0.284,-0.067 -0.582,0.018 -0.788,0.224l-10.333,10.333c-0.206,0.206 -0.291,0.505 -0.224,0.789c0.067,0.283 0.276,0.512 0.553,0.605l15.499,5.166Z" style="fill:#808080;"/><path d="M8.799,65.914c-0.286,0.142 -0.466,0.434 -0.466,0.753c0,0.318 0.18,0.61 0.466,0.752l20.833,10.417c0.261,0.131 0.571,0.117 0.819,-0.037c0.248,-0.153 0.399,-0.424 0.399,-0.716l-0,-20.833c-0,-0.292 -0.151,-0.563 -0.399,-0.716c-0.248,-0.153 -0.558,-0.167 -0.819,-0.037l-20.833,10.417Z" style="fill:#808080;"/><path d="M67.419,8.799c-0.142,-0.286 -0.434,-0.466 -0.752,-0.466c-0.319,0 -0.611,0.18 -0.753,0.466l-10.417,20.833c-0.13,0.261 -0.116,0.571 0.037,0.819c0.153,0.248 0.424,0.399 0.716,0.399l20.833,-0c0.292,-0 0.563,-0.151 0.716,-0.399c0.154,-0.248 0.168,-0.558 0.037,-0.819l-10.417,-20.833Z" style="fill:#808080;"/></svg>