<?xml version="1.0" encoding="UTF-8" standalone="no"?><!DOCTYPE svg PUBLIC "-//W3C//DTD SVG 1.1//EN" "http://www.w3.org/Graphics/SVG/1.1/DTD/svg11.dtd"><svg width="100%" height="100%" viewBox="0 0 134 134" version="1.1" xmlns="http://www.w3.org/2000/svg" xmlns:xlink="http://www.w3.org/1999/xlink" xml:space="preserve" xmlns:serif="http://www.serif.com/" style="fill-rule:evenodd;clip-rule:evenodd;stroke-linejoin:round;stroke-miterlimit:2;"><circle cx="66.667" cy="66.667" r="31.25" style="fill:#808080;"/><path d="M65.914,124.535c0.142,0.285 0.434,0.465 0.753,0.465c0.318,-0 0.61,-0.18 0.752,-0.465l10.417,-20.834c0.131,-0.26 0.117,-0.57 -0.037,-0.818c-0.153,-0.249 -0.424,-0.4 -0.716,-0.4l-20.833,0c-0.292,0 -0.563,0.151 -0.716,0.4c-0.153,0.248 -0.167,0.558 -0.037,0.818l10.417,20.834Z" style="fill:#808080;"/><path d="M124.535,67.419c0.285,-0.142 0.465,-0.434 0.465,-0.752c-0,-0.319 -0.18,-0.611 -0.465,-0.753l-20.834,-10.417c-0.26,-0.13 -0.57,-0.116 -0.818,0.037c-0.249,0.153 -0.4,0.424 -0.4,0.716l0,20.833c0,0.292 0.151,0.563 0.4,0.716c0.248,0.154 0.558,0.168 0.818,0.037l20.834,-10.417Z" style="fill:#808080;"/><path d="M29.226,28.162c-0.302,-0.101 -0.636,-0.022 -0.861,0.203c-0.225,0.225 -0.304,0.559 -0.203,0.861l5.892,17.678c0.093,0.277 0.321,0.486 0.605,0.553c0.284,0.067 0.583,-0.018 0.789,-0.224l11.785,-11.785c0.206,-0.206 0.291,-0.505 0.224,-0.789c-0.067,-0.284 -0.276,-0.512 -0.553,-0.605l-17.678,-5.892Z" style="fill:#808080;"/><path d="M104.107,105.172c0.302,0.1 0.636,0.022 0.861,-0.204c0.226,-0.225 0.304,-0.559 0.204,-0.861l-5.893,-17.678c-0.092,-0.276 -0.321,-0.486 -0.605,-0.553c-0.284,-0.067 -0.582,0.018 -0.788,0.224l-11.786,11.786c-0.206,0.206 -0.291,0.504 -0.224,0.788c0.067,0.284 0.277,0.513 0.553,0.605l17.678,5.893Z" style="fill:#808080;"/><path d="M28.757,104.702c-0.101,0.303 -0.022,0.636 0.203,0.861c0.226,0.226 0.559,0.305 0.861,0.204l17.678,-5.893c0.277,-0.092 0.486,-0.321 0.553,-0.605c0.067,-0.284 -0.018,-0.582 -0.224,-0.788l-11.785,-11.785c-0.206,-0.207 -0.505,-0.292 -0.789,-0.224c-0.283,0.067 -0.512,0.276 -0.605,0.552l-5.892,17.678Z" style="fill:#808080;"/><path d="M105.172,29.226c0.1,-0.302 0.022,-0.636 -0.204,-0.861c-0.225,-0.225 -0.559,-0.304 -0.861,-0.203l-17.678,5.892c-0.276,0.093 -0.486,0.321 -0.553,0.605c-0.067,0.284 0.018,0.583 0.224,0.789l11.786,11.785c0.206,0.206 0.504,0.291 0.788,0.224c0.284,-0.067 0.513,-0.276 0.605,-0.553l5.893,-17.678Z" style="fill:#808080;"/><path d="M8.799,65.914c-0.286,0.142 -0.466,0.434 -0.466,0.753c0,0.318 0.18,0.61 0.466,0.752l20.833,10.417c0.261,0.131 0.571,0.117 0.819,-0.037c0.248,-0.153 0.399,-0.424 0.399,-0.716l-0,-20.833c-0,-0.292 -0.151,-0.563 -0.399,-0.716c-0.248,-0.153 -0.558,-0.167 -0.819,-0.037l-20.833,10.417Z" style="fill:#808080;"/><path d="M67.419,8.799c-0.142,-0.286 -0.434,-0.466 -0.752,-0.466c-0.319,0 -0.611,0.18 -0.753,0.466l-10.417,20.833c-0.13,0.261 -0.116,0.571 0.037,0.819c0.153,0.248 0.424,0.399 0.716,0.399l20.833,-0c0.292,-0 0.563,-0.151 0.716,-0.399c0.154,-0.248 0.168,-0.558 0.037,-0.819l-10.417,-20.833Z" style="fill:#808080;"/></svg>